# xmcd
#
# Track frame offsets:
# 150
# 19558
# 34720
# 52273
# 75057
# 88306
#
# Disc length: 1423 seconds
#
#
# Revision: 0
# Processed by: cddbd v1.5.1PL0 Copyright (c) Steve Scherf et al.
# Submitted via: FreeRIP 2.00 
#
DISCID=3c058d06
DTITLE=Al Tait Allstars - Running Shoes
DYEAR=1998
DGENRE=Blues
TTITLE0=Howl Howl Howl
TTITLE1=My Baby's Gone
TTITLE2=Sweet Little Rock 'n' Roller
TTITLE3=Doin' It All For You
TTITLE4=Leave My Business Alone
TTITLE5=Running Shoes
EXTD=studio album
EXTT0=
EXTT1=
EXTT2=
EXTT3=
EXTT4=
EXTT5=
PLAYORDER=
